<svg width="15" height="17" viewBox="0 0 15 17" fill="none" xmlns="http://www.w3.org/2000/svg">
<path d="M13.5397 15.9666L13.1826 15.0698C13.002 14.6147 12.7214 14.2066 12.3623 13.874L12.297 13.8138C11.7317 13.2894 10.989 12.9976 10.2176 12.9976H5.10185C4.33051 12.9976 3.58773 13.2894 3.02147 13.8128L2.95617 13.874C2.59702 14.2066 2.31746 14.6147 2.13585 15.0698L1.77875 15.9666" stroke="white" stroke-width="1.77404" stroke-linecap="round" stroke-linejoin="round"/>
<path d="M10.1848 2.82011C11.5794 4.21469 11.5794 6.47573 10.1848 7.87031C8.79025 9.26489 6.5292 9.26489 5.13462 7.87031C3.74004 6.47573 3.74004 4.21469 5.13462 2.82011C6.5292 1.42552 8.79025 1.42552 10.1848 2.82011" stroke="white" stroke-width="1.77404" stroke-linecap="round" stroke-linejoin="round"/>
</svg>
